<?xml version="1.0" encoding="utf-8"?>
<!-- Generator: Adobe Illustrator 25.3.1, SVG Export Plug-In . SVG Version: 6.00 Build 0)  -->
<svg version="1.1" id="Capa_1" xmlns="http://www.w3.org/2000/svg" xmlns:xlink="http://www.w3.org/1999/xlink" x="0px" y="0px"
	 viewBox="0 0 530.6 524.6" style="enable-background:new 0 0 530.6 524.6;" xml:space="preserve">
<style type="text/css">
	.st0{fill:#1991D6;}
	.st1{fill:#FFFFFF;}
</style>
<g>
	<g>
		<g>
			<g>
				<g>
					
						<ellipse transform="matrix(0.2298 -0.9732 0.9732 0.2298 109.0664 332.1833)" class="st0" cx="264.4" cy="97.2" rx="61.2" ry="61.2"/>
					<path class="st1" d="M264.4,38.5c32.4,0,58.7,26.3,58.7,58.7s-26.3,58.7-58.7,58.7s-58.7-26.3-58.7-58.7S232,38.5,264.4,38.5
						 M264.4,33.5c-35.1,0-63.7,28.6-63.7,63.7s28.6,63.7,63.7,63.7s63.7-28.6,63.7-63.7S299.5,33.5,264.4,33.5L264.4,33.5z"/>
				</g>
				<g>
					<path class="st0" d="M265.3,477.9c-45.3,0-88.1-11.7-120.5-32.9c-14.8-9.7-26.8-21.1-35.8-33.9l-15.7,3.3c-3.2,0.7-6.4,1-9.6,1
						c-22.3,0-41.7-15.8-46.3-37.6l-13.7-65.6c-5.3-25.5,11.1-50.6,36.5-55.9l54.7-11.4c3.1-0.7,6.3-1,9.5-1
						c15.2,0,29.8,7.7,38.6,20.2c8.7-4.3,17.7-8,26.9-11.1V222c0-26,21.2-47.2,47.2-47.2h55.9c12.5,0,24.4,4.9,33.3,13.9
						c8.9,9,13.9,20.8,13.9,33.4v30.7c9.5,3.1,18.6,6.9,27.1,11.1c8.8-12.4,23.4-20,38.5-20c3.2,0,6.4,0.3,9.6,1l54.7,11.4
						c25.5,5.3,41.9,30.4,36.6,55.9l-13.8,65.6c-4.5,21.8-24,37.5-46.3,37.5c0,0,0,0,0,0c-3.2,0-6.4-0.3-9.6-1l-16-3.4
						c-13.9,19.6-35.3,36.1-62,48C331.3,471.4,298.8,477.9,265.3,477.9z M139.1,404.8c5.9,6.3,12.9,12.1,20.8,17.3
						c27.9,18.4,65.3,28.5,105.4,28.5c52.3,0,100.3-17.4,126.5-45.7l-9.2-1.9c-25.5-5.3-41.9-30.4-36.6-55.9l12.1-57.8
						c-5.5-2.8-11.4-5.5-17.6-7.8v7.7c0,26-21.2,47.2-47.2,47.2h-55.9c-26,0-47.2-21.2-47.2-47.2V282c-6,2.3-11.8,4.9-17.4,7.9
						l11.9,57.2c2.6,12.3,0.2,24.9-6.8,35.5c-6.9,10.6-17.5,17.8-29.8,20.4L139.1,404.8z"/>
					<path class="st1" d="M293.3,177.3c24.5,0,44.7,20.1,44.7,44.7v32.5c10.8,3.5,21,7.7,30.4,12.5c8.1-12.7,22.4-20.8,37.7-20.8
						c3,0,6,0.3,9.1,0.9l54.7,11.4c24.1,5,39.6,28.9,34.6,53l-13.8,65.6c-4.4,21-23.1,35.6-43.8,35.6c-3,0-6-0.3-9.1-0.9l-17.6-3.7
						c-27.2,39.6-86.3,67.2-154.9,67.2c-44.8,0-87.1-11.6-119.1-32.5c-15.4-10.1-27.4-21.8-36-34.6l-17.3,3.6
						c-3,0.6-6.1,0.9-9.1,0.9c-20.7,0-39.5-14.6-43.8-35.6l-13.7-65.6c-5-24.1,10.6-48,34.6-53l54.7-11.4c3-0.6,6-0.9,9-0.9
						c15.4,0,29.6,8.1,37.8,20.9c9.5-4.9,19.6-9.1,30.3-12.5V222c0-24.6,20.1-44.7,44.7-44.7H293.3 M237.4,333.8
						c-24.6,0-44.7-20.1-44.7-44.7v-10.8c-8,2.9-15.6,6.3-22.8,10.1l12.3,59c5,24.1-10.6,47.9-34.6,52.9l-13.3,2.8
						c6.4,7.5,14.5,14.6,24.2,20.9c28.3,18.7,66.3,28.9,106.8,28.9c56.8,0,106.2-20.2,131.2-49.8l-13.4-2.8
						c-24.1-5-39.6-28.8-34.7-52.9l12.5-59.7c-7.1-3.8-14.8-7.1-23-10.1v11.3c0,24.5-20.1,44.7-44.7,44.7H237.4 M293.3,172.3h-55.9
						c-27.4,0-49.7,22.3-49.7,49.7v29.1c-8.1,2.7-16,6-23.7,9.7c-9.4-12.1-24.1-19.5-39.4-19.5c-3.4,0-6.7,0.4-10,1l-54.7,11.4
						c-26.8,5.6-44.1,32-38.5,58.9l13.7,65.6c4.7,22.9,25.2,39.5,48.7,39.5c3.4,0,6.8-0.4,10.1-1l14.1-2.9
						c9.1,12.6,21,23.7,35.5,33.2c32.8,21.5,76.1,33.3,121.8,33.3c33.8,0,66.7-6.6,95-19.2c26.5-11.8,47.9-28.1,62.1-47.5l14.4,3
						c3.3,0.7,6.7,1,10.1,1c23.5,0,44-16.6,48.7-39.5l13.8-65.6c5.6-26.9-11.7-53.3-38.5-58.9l-54.7-11.4c-3.3-0.7-6.7-1-10.1-1
						c-15.2,0-29.9,7.3-39.3,19.4c-7.5-3.7-15.5-6.9-23.8-9.7V222c0-13.2-5.2-25.7-14.6-35.1C319,177.5,306.5,172.3,293.3,172.3
						L293.3,172.3z M237.4,338.8h55.9c27.4,0,49.7-22.3,49.7-49.7V285c4.3,1.7,8.4,3.6,12.3,5.5l-11.7,56
						c-5.6,26.9,11.7,53.3,38.5,58.8l4.7,1C360.5,432.2,315,448,265.3,448c-39.7,0-76.6-10-104-28c-6.4-4.2-12.2-8.8-17.2-13.7
						l4.6-1c12.9-2.7,24.1-10.3,31.4-21.5c7.3-11.1,9.8-24.4,7.1-37.4l-11.5-55.3c3.9-2,8-3.9,12.1-5.5v3.5
						C187.7,316.5,210,338.8,237.4,338.8L237.4,338.8z"/>
				</g>
				<g>
					<path class="st0" d="M458,235.5c-33.7,0-61.2-27.5-61.2-61.2c0-33.7,27.5-61.2,61.2-61.2s61.2,27.5,61.2,61.2
						C519.1,208.1,491.7,235.5,458,235.5z"/>
					<path class="st1" d="M458,115.7c32.4,0,58.7,26.3,58.7,58.7S490.4,233,458,233s-58.7-26.3-58.7-58.7S425.5,115.7,458,115.7
						 M458,110.7c-35.1,0-63.7,28.6-63.7,63.7S422.8,238,458,238s63.7-28.6,63.7-63.7S493.1,110.7,458,110.7L458,110.7z"/>
				</g>
				<g>
					<path class="st0" d="M72.7,235.6c-28.8,0-54-20.5-59.9-48.7c-3.3-16-0.3-32.3,8.7-46c8.9-13.7,22.7-23.1,38.7-26.4
						c4.2-0.9,8.4-1.3,12.6-1.3c28.7,0,53.9,20.5,59.9,48.7c6.8,33.1-14.4,65.6-47.4,72.5C81.1,235.1,76.9,235.6,72.7,235.6
						C72.7,235.6,72.7,235.6,72.7,235.6z"/>
					<path class="st1" d="M72.8,115.6c27.2,0,51.6,19,57.4,46.7c6.6,31.7-13.7,62.9-45.5,69.5c-4,0.8-8.1,1.3-12.1,1.3
						c-27.2,0-51.6-19-57.4-46.7c-6.6-31.7,13.7-62.8,45.4-69.5C64.7,116,68.8,115.6,72.8,115.6 M72.8,110.6
						c-4.4,0-8.8,0.5-13.1,1.4c-16.6,3.5-30.9,13.2-40.3,27.5c-9.3,14.2-12.5,31.3-9,47.9c3,14.4,11,27.4,22.4,36.6
						c11.3,9.1,25.5,14.1,39.9,14.1c4.4,0,8.8-0.5,13.1-1.4c34.3-7.2,56.5-41,49.3-75.4c-3-14.4-11-27.4-22.5-36.6
						C101.3,115.6,87.2,110.6,72.8,110.6L72.8,110.6z"/>
				</g>
			</g>
		</g>
	</g>
	<g id="layer1" transform="translate(140.5784,-17.878066)">
		<g id="path5085">
			<path class="st0" d="M146.8,506.5c-1.1,0-2.2-0.2-3.1-0.5c-1.6-0.6-4.7-2.8-4.8-5.2c-0.1-1.6,2.3-9.4,3.1-11.4
				c0.9-2.4,1.7-4.8,2.6-7.3c1.4-3.9,2.8-7.9,4.3-11.8c1.5-4.1,2.1-6,2.3-6.6c0.4-1.4,1.8-2.4,3.2-2.4c1.2,0,9,2.2,10.7,2.7
				c0.4,0.1,0.8,0.2,1.2,0.2c1.4,0,3.3-0.9,6.8-3.1c0.1-0.1,0.2-0.1,0.3-0.1c4.9-2.3,9.3-5,14-7.9c1.3-0.8,2.6-1.6,4-2.4
				c2.3-1.3,4.8-2.7,5.7-3.2c1-0.6,1.8-1,2.8-1c0,0,0.1,0,0.1,0c1,0,1.8,0.6,2.4,1.4c1.2,1.9,0.9,3-1.5,14c-0.4,1.9-1,4.6-1.3,6
				c-0.6,2.8-1.5,7-2,9.1c-0.9,3.7-3.4,5.7-7.5,7.8c-4.3,2.3-8.6,4.7-12.7,7c-8.8,5-18,10.2-28.8,14.6c-0.2,0.1-0.4,0.1-0.6,0.2
				C147.4,506.5,147.1,506.5,146.8,506.5z M17.7,463.3c-1.3,0-2.3-0.4-3-0.8c-2-1.1-3.4-3.6-3.4-5.8c0-0.6,0-1.5,7-16.6
				c7.3-15.7,7.6-15.8,9.1-16.1c0.2,0,0.4-0.1,0.6-0.1c0.1,0,0.2,0,0.3,0c1,0.1,3.3,0.6,5,1.1c8.6,2.4,18.8,5.1,28.8,7.7l0,0
				c0.6,0.2,1.2,0.6,1.5,1.1c0.8,1.3,0.1,2.6-0.3,3.3c-0.1,0.2-0.4,0.9-0.5,1.4c-0.8,3.3-3.7,9.4-5.5,11.3
				c-2.2,2.3-2.6,2.4-19.7,7.6c-3.5,1-7.2,2.2-10.7,3.3c-2.1,0.7-4.3,1.4-6.3,2C19.8,463,18.8,463.3,17.7,463.3z M166.1,460.3
				c-2.4,0-5.5-1-8.3-1.9c-0.7-0.2-1.5-0.5-2.1-0.7c-21-6-42.7-12.2-65.6-18.8c-34.7-10-70.6-20.3-105.2-30.1c0,0-0.1,0-0.1,0
				c-0.5-0.2-1.5-0.5-2.3-0.7c-6.5-1.8-9.1-2.9-10.4-5.3c-0.9-1.8-1.1-3.8-0.4-5.6c0.7-1.8,2.2-3.2,4.2-3.9c1.8-0.7,32.2-5,33.5-5.2
				c17.3-2.5,33-4.7,35.1-5c1.5-0.2,3-0.4,4.5-0.4l0.3,0c2.7,0,5.5,0.4,9.2,1.2c2,0.5,9.9,1.6,35.1,5.3c4.1,0.6,11.5,1.7,16.4,2.4
				c11.3,1.7,31.8,4.7,41.3,6.1c4.1,0.6,12.1,1.8,17.6,2.6c5.6,0.8,14.7,2.1,20.2,2.9c5.6,0.8,11.8,1.7,13.8,2
				c2,0.3,5.9,0.9,8.6,1.3c6.3,0.9,23.5,3.4,29,4.2c5.3,0.8,5.8,1.4,6.2,2.1c1.6,2.4,0.3,6.4-1.9,8.3c-0.6,0.5-13.7,7.2-38.9,19.9
				c-28.4,14.3-37.2,18.6-39.2,19.1C166.5,460.3,166.3,460.3,166.1,460.3C166.1,460.3,166.1,460.3,166.1,460.3z M251.9,406.3
				c-1.7,0-4.4-0.4-11-1.2c-10.4-1.4-24.5-3.3-40.2-5.3c-15.9-2.1-32.6-4.3-49.7-6.5c-25.9-3.4-52.7-6.9-78.9-10.4
				c-11.5-1.5-14-1.9-16-4.7c-1.3-1.8-1.1-3-0.6-5.8c0.2-1,0.6-3.1,0.9-4.1l0.3-1.2c3.6-15.6,8.1-35,13.6-61.6
				c0.8-4.5,2.3-7.2,5-8.9c0.1-0.1,0.1-0.1,0.2-0.1c1.6-1.2,1.6-1.2,28.2-3l9.1-0.6c26.6-1.8,53.5-3.7,80.5-5.5L240,284
				c21.4-1.5,28.6-2,31.3-2l0.2,0c1.2,0,2.3,0.1,3.2,0.9c1,0.6,2.1,1.7,2.7,2.7c1.3,2.3,1,4-0.6,12.1c-3.4,17.5-7.8,40.1-12,62.1
				c-2,10.6-4.1,21.2-6,31.3c-1.7,9.2-2.3,11.6-2.7,12.7C255.4,405.5,254.1,406.3,251.9,406.3z"/>
			<path class="st1" d="M271.5,284.5c1.7,0,1.3,0.2,1.8,0.5c0.7,0.4,1.5,1.3,1.9,1.9c0.8,1.4,0.7,2.2-0.9,10.3
				c-5.1,25.8-12,62.3-18,93.4c-1.5,7.7-2.2,11.2-2.6,12.2c-0.2,0.6-0.4,0.9-1.8,0.9c-1.5,0-4.5-0.4-10.7-1.2
				c-10.4-1.4-24.5-3.3-40.2-5.3c-39.9-5.2-85.2-11.2-128.5-16.9c-11.4-1.5-13-1.9-14.3-3.7c-0.6-0.9-0.6-1.1-0.1-3.9
				c0.3-1.6,0.7-3.4,0.9-3.9c3.7-15.9,8.2-35.6,13.9-63c0.7-3.8,1.8-6,3.9-7.3c1.8-1.1-2-0.8,36.3-3.4c37.9-2.6,76.3-5.2,114.7-7.9
				c31-2.1,40.5-2.8,43.7-2.9v0C271.4,284.5,271.5,284.5,271.5,284.5 M49,385.3c0.1,0,0.2,0,0.3,0h0c2.5,0,5.2,0.4,8.6,1.2
				c2.1,0.5,9.9,1.6,35.3,5.3c4.1,0.6,11.5,1.7,16.4,2.4c11.4,1.7,31.8,4.7,41.4,6.1c4.1,0.6,12.1,1.8,17.6,2.6
				c5.6,0.8,14.7,2.1,20.2,2.9c5.6,0.8,11.8,1.7,13.8,2c2,0.3,5.9,0.9,8.6,1.3c6.3,0.9,23.5,3.4,29,4.2c2.3,0.3,4.3,0.8,4.5,1
				c0.7,1.1,0,3.8-1.4,5.1c-0.4,0.3-17.7,9.1-38.4,19.6c-25.5,12.9-36.8,18.4-38.8,18.9c-2.6,0-6.7-1.6-9.7-2.5
				C103,440.1,42.6,422.5-14.5,406.4c-0.5-0.2-1.6-0.5-2.4-0.7c-6.1-1.7-8-2.6-8.8-4.1c-1.3-2.4-0.2-5.1,2.4-6
				c0.9-0.3,15.7-2.6,33-5c17.3-2.4,33.1-4.7,35.1-5C46.2,385.4,47.6,385.3,49,385.3 M28,426.3c0,0,0.1,0,0.1,0l0,0
				c0.6,0.1,2.5,0.5,4.5,1c9.1,2.5,19.2,5.2,28.8,7.7c0.1,0-0.1,0.4-0.3,0.8c-0.2,0.5-0.6,1.3-0.7,1.9c-0.8,3.1-3.5,8.7-4.9,10.2
				c-1.8,1.8-2,1.9-18.6,6.9c-5.6,1.7-11.5,3.6-17.1,5.3c-0.9,0.3-1.6,0.5-2.1,0.5c-0.6,0-1.1-0.2-1.8-0.5c-1.2-0.6-2.1-2.3-2.1-3.6
				C13.8,455.3,27.2,426.5,28,426.3C27.9,426.3,28,426.3,28,426.3 M199.8,448.8C199.8,448.8,199.8,448.8,199.8,448.8
				c0.2,0,0.3,0.1,0.4,0.2c0.6,0.9,0.4,1.9-1.9,12.1c-0.4,1.9-1,4.6-1.3,6.1c-0.6,2.8-1.5,6.9-2,9c-0.6,2.5-2.1,4-6.2,6.2
				c-13.5,7-25.5,15.1-41.3,21.5c-0.2,0-0.4,0-0.6,0c-0.8,0-1.6-0.1-2.3-0.4c-1.4-0.5-3.1-2.2-3.1-3c0-0.8,1.9-7.5,2.9-10.5
				c2.3-6.1,4.4-12.7,6.9-19.1c1.6-4.3,2.2-6.1,2.4-6.7c0.1-0.4,0.5-0.6,0.8-0.6c0.6,0,7.3,1.8,9.9,2.6c0.7,0.2,1.3,0.3,1.9,0.3
				c2,0,4.2-1,8.1-3.4c6.4-3,12.1-6.8,18.2-10.5c2.2-1.2,4.8-2.7,5.6-3.2C199,449.1,199.5,448.8,199.8,448.8 M271.5,279.5l-0.2,0
				c-2.8,0-10,0.5-31.4,2l-12.6,0.9l-32.3,2.2c-27.6,1.9-55.1,3.8-82.4,5.7l-9.1,0.6c-13,0.9-19.5,1.3-22.9,1.6
				c-3.5,0.3-4.9,0.6-6.7,1.9l0,0c-4.2,2.6-5.5,7-6.1,10.6c-5.5,26.6-10,45.9-13.5,61.5l-0.3,1.1c-0.4,1.4-0.9,3.8-1,4.3
				c-0.5,2.9-0.9,5,1,7.7c0.3,0.4,0.7,0.9,1,1.2c-2.1-0.3-4-0.5-5.9-0.5l-0.3,0c-1.6,0-3.2,0.1-4.9,0.4c-2,0.3-17.7,2.6-35,5
				c-14.6,2.1-32.3,4.7-34,5.3c-2.6,1-4.7,2.9-5.7,5.4c-1,2.5-0.8,5.2,0.5,7.6c1.9,3.6,5.8,4.9,11.9,6.6c0.8,0.2,1.8,0.5,2.2,0.6
				c0.1,0,0.1,0,0.2,0.1c13.3,3.7,26.8,7.6,40.3,11.4c-1.1,1.1-2,2.9-3.5,6.1c-1.3,2.7-3.1,6.3-4.9,10.2
				c-7.3,15.6-7.3,16.5-7.3,17.7c0,3.2,2,6.5,4.7,8c0.9,0.5,2.3,1.1,4.2,1.1c1.4,0,2.7-0.4,3.7-0.7c2-0.6,4.1-1.3,6.2-2
				c3.6-1.1,7.3-2.3,10.7-3.3c17.4-5.2,18.1-5.4,20.8-8.2c2.4-2.5,5.3-9.2,6.2-12.5c0.1-0.2,0.2-0.7,0.3-0.8c0.3-0.5,1-1.9,0.9-3.5
				c7.6,2.2,15.3,4.4,22.8,6.6c21.9,6.3,42.6,12.3,62.7,18c-1.5,0.7-2.7,2-3.2,3.6c-0.2,0.6-1.1,3-2.3,6.5c-1.5,4-3,8-4.3,11.9
				c-0.9,2.5-1.7,4.9-2.6,7.3c-0.3,0.8-3.3,9.9-3.2,12.4c0.1,3.9,4.4,6.7,6.4,7.5c1.2,0.4,2.6,0.7,4,0.7c0.4,0,0.9,0,1.3-0.1
				c0.4-0.1,0.8-0.2,1.2-0.3c11-4.5,20.2-9.7,29.1-14.7c4.3-2.4,8.4-4.7,12.6-7c4.6-2.4,7.7-4.8,8.8-9.5c0.5-2.2,1.4-6.3,2-9.1
				c0.3-1.4,0.9-4.1,1.3-6c2.6-11.6,2.9-13.1,1.2-15.9c-0.3-0.4-0.6-0.8-1-1.2c1.2-0.6,2.4-1.2,3.7-1.9
				c38.3-19.3,38.9-19.8,39.4-20.3c3-2.6,4.7-8,2.3-11.6c-1.2-1.8-2.8-2.5-8-3.2c-5.6-0.8-22.7-3.3-29-4.2c-2.7-0.4-6.6-1-8.6-1.3
				c-1.9-0.3-7.4-1.1-12.6-1.9c3.3,0.4,6.5,0.9,9.8,1.3c15.5,2,29.8,3.9,40.2,5.3c6.7,0.9,9.5,1.3,11.3,1.3c3.2,0,5.4-1.4,6.4-4.1
				c0.5-1.3,1.1-3.6,2.9-13.1c2-10.1,4-20.8,6.1-31.5c4.2-21.8,8.5-44.4,12-61.8c1.7-8.4,2.1-10.7,0.3-13.8c-0.7-1.3-2-2.6-3.3-3.5
				C274.7,279.6,273,279.5,271.5,279.5L271.5,279.5z"/>
		</g>
	</g>
</g>
</svg>
